<svg width="183" height="24" viewBox="0 0 183 24" fill="none" xmlns="http://www.w3.org/2000/svg">
<path d="M13.4 3.06C13.38 3.08 13.35 3.13 13.31 3.21C13.29 3.29 13.28 3.43 13.28 3.63C13.28 3.91 13.32 4.18 13.4 4.44V14.37C13.4 15.39 13.3 16.37 13.1 17.31C12.9 18.25 12.55 19.09 12.05 19.83C11.57 20.55 10.9 21.12 10.04 21.54C9.2 21.98 8.12 22.2 6.8 22.2H6.41C5.27 22.2 4.34 22.04 3.62 21.72C2.92 21.42 2.37 21.03 1.97 20.55C1.57 20.07 1.3 19.55 1.16 18.99C1.02 18.41 0.95 17.86 0.95 17.34C0.95 16.9 1.01 16.48 1.13 16.08C1.23 15.66 1.39 15.3 1.61 15C1.81 14.68 2.06 14.43 2.36 14.25C2.66 14.05 3 13.95 3.38 13.95C3.74 13.95 3.97 14.05 4.07 14.25C4.17 14.43 4.22 14.62 4.22 14.82C4.22 15.26 4.13 15.63 3.95 15.93C3.77 16.21 3.57 16.46 3.35 16.68C3.15 16.9 2.96 17.12 2.78 17.34C2.6 17.56 2.51 17.83 2.51 18.15C2.51 19.11 2.83 19.8 3.47 20.22C4.11 20.64 4.91 20.85 5.87 20.85C6.71 20.85 7.44 20.68 8.06 20.34C8.68 20 9.19 19.57 9.59 19.05C10.01 18.53 10.32 17.97 10.52 17.37C10.72 16.75 10.82 16.17 10.82 15.63L10.37 15.66C9.65 15.66 9.02 15.5 8.48 15.18C7.96 14.84 7.52 14.42 7.16 13.92C6.82 13.42 6.56 12.88 6.38 12.3C6.22 11.72 6.14 11.18 6.14 10.68V9.63C6.14 9.25 6.19 8.81 6.29 8.31C6.39 7.79 6.53 7.26 6.71 6.72C6.89 6.16 7.11 5.62 7.37 5.1C7.63 4.56 7.91 4.08 8.21 3.66C8.51 3.24 8.83 2.9 9.17 2.64C9.51 2.38 9.86 2.25 10.22 2.25C10.36 2.25 10.52 2.28 10.7 2.34L12.8 2.49C12.94 2.51 13.07 2.56 13.19 2.64C13.33 2.72 13.4 2.86 13.4 3.06ZM10.82 6.66C10.86 6.5 10.9 6.35 10.94 6.21C10.98 6.07 11 5.91 11 5.73C11 5.47 10.93 5.24 10.79 5.04C10.67 4.82 10.44 4.71 10.1 4.71C9.66 4.71 9.3 4.89 9.02 5.25C8.74 5.61 8.52 6.04 8.36 6.54C8.22 7.04 8.12 7.56 8.06 8.1C8 8.64 7.97 9.08 7.97 9.42C7.97 9.68 7.99 10.06 8.03 10.56C8.07 11.04 8.16 11.52 8.3 12C8.46 12.48 8.67 12.9 8.93 13.26C9.21 13.62 9.58 13.8 10.04 13.8C10.08 13.8 10.19 13.79 10.37 13.77C10.57 13.75 10.72 13.72 10.82 13.68V6.66ZM20.2829 14.46C19.9829 14.88 19.7329 15.35 19.5329 15.87C19.3529 16.37 19.1929 16.9 19.0529 17.46C18.9129 18 18.7929 18.55 18.6929 19.11C18.6129 19.65 18.5229 20.17 18.4229 20.67C18.3829 20.79 18.2229 20.87 17.9429 20.91C17.6829 20.95 17.4929 20.97 17.3729 20.97C17.0129 20.97 16.7129 20.95 16.4729 20.91C16.2529 20.87 16.0829 20.78 15.9629 20.64C15.8429 20.48 15.7529 20.25 15.6929 19.95C15.6329 19.63 15.5829 19.21 15.5429 18.69L15.9329 9.78C15.9329 9.52 16.0729 9.39 16.3529 9.39C16.4529 9.39 16.5929 9.41 16.7729 9.45C16.9529 9.47 17.1429 9.51 17.3429 9.57C17.5429 9.63 17.7129 9.71 17.8529 9.81C17.9929 9.89 18.0629 9.99 18.0629 10.11V16.2C18.0829 16.18 18.1129 16.1 18.1529 15.96C18.2929 15.6 18.4629 15.16 18.6629 14.64C18.8629 14.1 19.0829 13.59 19.3229 13.11C19.5629 12.63 19.8129 12.22 20.0729 11.88C20.3529 11.54 20.6329 11.37 20.9129 11.37C21.2729 11.37 21.5429 11.46 21.7229 11.64C21.9229 11.8 22.0729 12.01 22.1729 12.27C22.2729 12.53 22.3329 12.81 22.3529 13.11C22.3729 13.41 22.3829 13.7 22.3829 13.98C22.3829 14.18 22.3629 14.51 22.3229 14.97C22.2829 15.43 22.2629 16.12 22.2629 17.04C22.2629 17.56 22.3129 18.03 22.4129 18.45C22.5129 18.87 22.7129 19.08 23.0129 19.08C23.2329 19.08 23.4329 18.98 23.6129 18.78C23.7929 18.58 23.9529 18.33 24.0929 18.03C24.2529 17.73 24.3829 17.41 24.4829 17.07C24.5829 16.73 24.6429 16.41 24.6629 16.11C24.6829 15.73 24.8329 15.54 25.1129 15.54C25.2929 15.54 25.4129 15.6 25.4729 15.72C25.5329 15.84 25.5629 15.98 25.5629 16.14V16.2C25.5429 16.6 25.4629 17.05 25.3229 17.55C25.2029 18.05 25.0129 18.52 24.7529 18.96C24.5129 19.4 24.1929 19.77 23.7929 20.07C23.3929 20.37 22.9029 20.52 22.3229 20.52C21.4229 20.52 20.8429 20.2 20.5829 19.56C20.3429 18.9 20.2229 17.93 20.2229 16.65L20.2829 14.46ZM31.9735 19.14C31.9735 19.62 31.8135 19.99 31.4935 20.25C31.1735 20.51 30.8035 20.7 30.3835 20.82C29.9835 20.94 29.5735 21.01 29.1535 21.03C28.7535 21.07 28.4635 21.09 28.2835 21.09C28.0035 21.09 27.6535 21.06 27.2335 21C26.8335 20.94 26.4335 20.85 26.0335 20.73C25.6535 20.59 25.3235 20.4 25.0435 20.16C24.7835 19.92 24.6535 19.62 24.6535 19.26C24.6535 19.04 24.7335 18.89 24.8935 18.81C25.0735 18.71 25.2435 18.66 25.4035 18.66C25.6235 18.66 25.8335 18.74 26.0335 18.9C26.2535 19.06 26.4735 19.23 26.6935 19.41C26.9335 19.59 27.1935 19.76 27.4735 19.92C27.7535 20.08 28.0735 20.16 28.4335 20.16C28.5935 20.16 28.8035 20.11 29.0635 20.01C29.3435 19.89 29.4835 19.69 29.4835 19.41C29.4835 19.13 29.3635 18.86 29.1235 18.6C28.9035 18.34 28.6135 18.07 28.2535 17.79C27.9135 17.51 27.5435 17.22 27.1435 16.92C26.7435 16.62 26.3635 16.3 26.0035 15.96C25.6635 15.6 25.3735 15.21 25.1335 14.79C24.9135 14.37 24.8035 13.91 24.8035 13.41C24.8035 12.71 25.0235 12.12 25.4635 11.64C25.9235 11.16 26.4535 10.78 27.0535 10.5C27.6735 10.22 28.3035 10.02 28.9435 9.9C29.5835 9.78 30.0835 9.72 30.4435 9.72C30.7835 9.72 31.1235 9.79 31.4635 9.93C31.8035 10.07 31.9735 10.34 31.9735 10.74C31.9735 10.86 31.9435 11.04 31.8835 11.28C31.8435 11.5 31.7635 11.72 31.6435 11.94C31.5435 12.16 31.4035 12.36 31.2235 12.54C31.0435 12.7 30.8135 12.78 30.5335 12.78C30.4535 12.78 30.3735 12.75 30.2935 12.69C30.2135 12.61 30.1235 12.53 30.0235 12.45C29.9235 12.35 29.8135 12.27 29.6935 12.21C29.5935 12.13 29.4735 12.09 29.3335 12.09C28.6335 12.09 28.1435 12.3 27.8635 12.72C27.5835 13.12 27.4435 13.55 27.4435 14.01C27.4435 14.41 27.6735 14.83 28.1335 15.27C28.6135 15.71 29.1335 16.15 29.6935 16.59C30.2735 17.03 30.7935 17.47 31.2535 17.91C31.7335 18.33 31.9735 18.74 31.9735 19.14ZM32.6197 15.57C32.6397 14.55 32.6697 13.51 32.7097 12.45C32.7497 11.39 32.7897 10.41 32.8297 9.51C32.8297 9.35 32.6697 9.24 32.3497 9.18C32.0297 9.12 31.6697 9.06 31.2697 9C30.8697 8.94 30.5097 8.85 30.1897 8.73C29.8697 8.59 29.7097 8.37 29.7097 8.07C29.7097 7.81 29.9697 7.66 30.4897 7.62C31.0097 7.58 31.7797 7.56 32.7997 7.56C32.8797 7.56 32.9297 7.44 32.9497 7.2C32.9897 6.96 33.0097 6.66 33.0097 6.3C33.0297 5.92 33.0397 5.52 33.0397 5.1C33.0597 4.68 33.0797 4.29 33.0997 3.93C33.1197 3.55 33.1497 3.24 33.1897 3C33.2497 2.76 33.3197 2.64 33.3997 2.64C33.4997 2.64 33.6797 2.66 33.9397 2.7C34.1997 2.74 34.4697 2.8 34.7497 2.88C35.0297 2.94 35.2697 3.02 35.4697 3.12C35.6897 3.22 35.7997 3.33 35.7997 3.45L35.4697 7.35C35.4697 7.47 35.5697 7.56 35.7697 7.62C35.9897 7.66 36.2597 7.69 36.5797 7.71C36.9197 7.71 37.2697 7.71 37.6297 7.71C38.0097 7.71 38.3597 7.74 38.6797 7.8C39.0197 7.86 39.2897 7.96 39.4897 8.1C39.7097 8.22 39.8197 8.41 39.8197 8.67C39.8197 8.71 39.7997 8.78 39.7597 8.88C39.7197 8.96 39.6697 9 39.6097 9C39.5697 9 39.5097 8.97 39.4297 8.91C39.3697 8.85 39.1897 8.82 38.8897 8.82C38.8097 8.82 38.5897 8.83 38.2297 8.85C37.8697 8.87 37.4897 8.9 37.0897 8.94C36.6897 8.98 36.3197 9.03 35.9797 9.09C35.6597 9.13 35.4797 9.19 35.4397 9.27C35.4197 9.31 35.3897 9.55 35.3497 9.99C35.3297 10.41 35.2997 10.97 35.2597 11.67C35.2397 12.37 35.2197 13.18 35.1997 14.1C35.1797 15 35.1697 15.95 35.1697 16.95C35.1697 17.33 35.1897 17.7 35.2297 18.06C35.2697 18.42 35.3297 18.75 35.4097 19.05C35.4897 19.33 35.5897 19.56 35.7097 19.74C35.8497 19.92 36.0097 20.01 36.1897 20.01C36.4497 20.01 36.6897 19.9 36.9097 19.68C37.1297 19.46 37.3297 19.16 37.5097 18.78C37.6897 18.4 37.8497 17.97 37.9897 17.49C38.1297 17.01 38.2497 16.52 38.3497 16.02C38.4097 15.72 38.4797 15.51 38.5597 15.39C38.6397 15.25 38.7597 15.18 38.9197 15.18C39.0597 15.18 39.1797 15.23 39.2797 15.33C39.3997 15.41 39.4597 15.61 39.4597 15.93C39.4597 16.13 39.4497 16.26 39.4297 16.32C39.3697 16.68 39.2497 17.18 39.0697 17.82C38.9097 18.44 38.6797 19.06 38.3797 19.68C38.0997 20.28 37.7497 20.81 37.3297 21.27C36.9097 21.73 36.4197 21.96 35.8597 21.96C35.3197 21.96 34.8497 21.8 34.4497 21.48C34.0497 21.18 33.7097 20.76 33.4297 20.22C33.1697 19.66 32.9697 19.01 32.8297 18.27C32.6897 17.51 32.6197 16.7 32.6197 15.84V15.57ZM50.4223 17.73C50.3823 18.01 50.2823 18.34 50.1223 18.72C49.9623 19.1 49.7523 19.47 49.4923 19.83C49.2523 20.17 48.9623 20.46 48.6223 20.7C48.3023 20.94 47.9423 21.06 47.5423 21.06C46.9423 21.06 46.4123 20.83 45.9523 20.37C45.5123 19.91 45.2423 19.26 45.1423 18.42C45.0223 18.74 44.8823 19.11 44.7223 19.53C44.5623 19.95 44.3623 20.34 44.1223 20.7C43.8823 21.06 43.6023 21.36 43.2823 21.6C42.9823 21.86 42.6223 21.99 42.2023 21.99C42.0823 21.99 41.9923 21.98 41.9323 21.96C41.8723 21.94 41.8023 21.91 41.7223 21.87C41.6623 21.85 41.5823 21.83 41.4823 21.81C41.4023 21.79 41.2823 21.78 41.1223 21.78C40.6423 21.78 40.2323 21.62 39.8923 21.3C39.5723 21 39.3123 20.61 39.1123 20.13C38.9123 19.65 38.7623 19.13 38.6623 18.57C38.5823 17.99 38.5423 17.45 38.5423 16.95C38.5423 15.75 38.6023 14.61 38.7223 13.53C38.8623 12.45 39.0823 11.5 39.3823 10.68C39.6823 9.84 40.0723 9.18 40.5523 8.7C41.0323 8.2 41.6123 7.95 42.2923 7.95C42.6923 7.95 42.9923 7.99 43.1923 8.07C43.4123 8.13 43.6123 8.21 43.7923 8.31C43.9723 8.39 44.1623 8.48 44.3623 8.58C44.5823 8.68 44.8823 8.76 45.2623 8.82C45.6823 9.06 45.9723 9.35 46.1323 9.69C46.3123 10.01 46.4223 10.36 46.4623 10.74C46.5223 11.12 46.5423 11.52 46.5223 11.94C46.5023 12.34 46.5223 12.74 46.5823 13.14C46.5823 13.16 46.6223 13.19 46.7023 13.23C46.8023 13.27 46.9123 13.32 47.0323 13.38C47.1523 13.42 47.2523 13.49 47.3323 13.59C47.4323 13.67 47.4823 13.78 47.4823 13.92V14.04C47.2823 14.56 47.1623 15.02 47.1223 15.42C47.0823 15.82 47.0623 16.3 47.0623 16.86C47.0623 17.14 47.0723 17.45 47.0923 17.79C47.1323 18.11 47.1823 18.42 47.2423 18.72C47.3223 19 47.4323 19.24 47.5723 19.44C47.7123 19.62 47.8923 19.71 48.1123 19.71C48.3523 19.71 48.5623 19.59 48.7423 19.35C48.9423 19.11 49.1023 18.84 49.2223 18.54C49.3623 18.22 49.4723 17.9 49.5523 17.58C49.6523 17.26 49.7123 17.02 49.7323 16.86C49.7723 16.62 49.8723 16.5 50.0323 16.5C50.1323 16.5 50.2223 16.56 50.3023 16.68C50.4023 16.78 50.4523 16.97 50.4523 17.25C50.4523 17.33 50.4523 17.41 50.4523 17.49C50.4523 17.55 50.4423 17.63 50.4223 17.73ZM44.8723 12.87C44.8723 12.65 44.8523 12.39 44.8123 12.09C44.7723 11.79 44.7023 11.51 44.6023 11.25C44.5023 10.99 44.3523 10.77 44.1523 10.59C43.9523 10.41 43.6823 10.32 43.3423 10.32C42.7823 10.32 42.3223 10.58 41.9623 11.1C41.6223 11.6 41.3523 12.2 41.1523 12.9C40.9523 13.58 40.8223 14.29 40.7623 15.03C40.7023 15.75 40.6723 16.32 40.6723 16.74C40.6723 17.06 40.6823 17.45 40.7023 17.91C40.7423 18.35 40.8023 18.77 40.8823 19.17C40.9623 19.57 41.0723 19.91 41.2123 20.19C41.3723 20.47 41.5723 20.61 41.8123 20.61C42.3923 20.61 42.8323 20.39 43.1323 19.95C43.4523 19.49 43.6923 18.93 43.8523 18.27C44.0123 17.59 44.1223 16.87 44.1823 16.11C44.2623 15.33 44.3323 14.62 44.3923 13.98C44.4323 13.64 44.5223 13.43 44.6623 13.35C44.8023 13.25 44.8723 13.18 44.8723 13.14V12.87ZM53.5808 12.93C54.4808 12.93 55.2108 12.92 55.7708 12.9C56.3308 12.86 56.8608 12.79 57.3608 12.69C57.3608 12.69 57.4008 12.74 57.4808 12.84C57.5608 12.94 57.6408 13.07 57.7208 13.23C57.8208 13.37 57.9108 13.53 57.9908 13.71C58.0708 13.89 58.1108 14.07 58.1108 14.25C58.1108 14.53 58.0308 14.81 57.8708 15.09C57.7108 15.35 57.3608 15.48 56.8208 15.48H56.6408C56.3008 15.48 55.8708 15.46 55.3508 15.42C54.8308 15.36 54.1008 15.33 53.1608 15.33H52.6808C52.2208 15.33 51.8008 15.18 51.4208 14.88C51.0408 14.58 50.8508 14.2 50.8508 13.74C50.8508 13.46 50.9108 13.24 51.0308 13.08C51.1508 12.9 51.3808 12.81 51.7208 12.81H51.8108C51.9908 12.83 52.1108 12.85 52.1708 12.87C52.2308 12.89 52.3008 12.91 52.3808 12.93C52.4608 12.93 52.5808 12.93 52.7408 12.93C52.9208 12.93 53.2008 12.93 53.5808 12.93ZM73.3299 6.03C73.3299 6.23 73.2899 6.39 73.2099 6.51C73.1299 6.63 73.0299 6.72 72.9099 6.78C72.7899 6.84 72.6699 6.88 72.5499 6.9C72.4299 6.92 72.3299 6.93 72.2499 6.93C71.9299 6.93 71.6899 6.77 71.5299 6.45C71.3899 6.11 71.2099 5.75 70.9899 5.37C70.7899 4.97 70.4799 4.61 70.0599 4.29C69.6599 3.95 69.0299 3.78 68.1699 3.78C67.6499 3.78 67.1899 3.89 66.7899 4.11C66.3899 4.33 66.0499 4.61 65.7699 4.95C65.5099 5.29 65.3099 5.67 65.1699 6.09C65.0499 6.49 64.9899 6.89 64.9899 7.29C64.9899 7.93 65.0999 8.52 65.3199 9.06C65.5599 9.58 65.8899 10.08 66.3099 10.56C66.7299 11.02 67.2299 11.48 67.8099 11.94C68.3899 12.38 69.0199 12.85 69.6999 13.35C70.2799 13.77 70.8399 14.2 71.3799 14.64C71.9399 15.08 72.4299 15.55 72.8499 16.05C73.2899 16.55 73.6399 17.09 73.8999 17.67C74.1599 18.23 74.2899 18.84 74.2899 19.5C74.2899 20.24 74.0799 20.85 73.6599 21.33C73.2599 21.81 72.7499 22.19 72.1299 22.47C71.5099 22.77 70.8199 22.97 70.0599 23.07C69.3199 23.19 68.5999 23.25 67.8999 23.25C67.1999 23.25 66.4599 23.19 65.6799 23.07C64.8999 22.95 64.1799 22.74 63.5199 22.44C62.8599 22.16 62.3099 21.79 61.8699 21.33C61.4499 20.89 61.2399 20.34 61.2399 19.68C61.2399 19.08 61.4399 18.61 61.8399 18.27C62.2599 17.93 62.8599 17.68 63.6399 17.52C63.5999 17.64 63.5099 17.85 63.3699 18.15C63.2499 18.43 63.1899 18.82 63.1899 19.32C63.1899 19.88 63.3699 20.33 63.7299 20.67C64.0899 21.01 64.5199 21.27 65.0199 21.45C65.5199 21.63 66.0299 21.74 66.5499 21.78C67.0899 21.84 67.5299 21.87 67.8699 21.87C68.0899 21.87 68.3899 21.83 68.7699 21.75C69.1699 21.67 69.5599 21.55 69.9399 21.39C70.3199 21.23 70.6399 21.02 70.8999 20.76C71.1799 20.48 71.3199 20.15 71.3199 19.77C71.3199 19.47 71.2199 19.16 71.0199 18.84C70.8399 18.5 70.5899 18.16 70.2699 17.82C69.9499 17.46 69.5799 17.1 69.1599 16.74C68.7399 16.38 68.2899 16.02 67.8099 15.66C67.1099 15.12 66.4199 14.57 65.7399 14.01C65.0599 13.45 64.4499 12.87 63.9099 12.27C63.3699 11.67 62.9299 11.05 62.5899 10.41C62.2499 9.75 62.0799 9.06 62.0799 8.34C62.0799 7.24 62.2799 6.31 62.6799 5.55C63.0999 4.77 63.6299 4.14 64.2699 3.66C64.9299 3.18 65.6499 2.83 66.4299 2.61C67.2099 2.39 67.9699 2.28 68.7099 2.28C69.2699 2.28 69.8499 2.33 70.4499 2.43C71.0699 2.51 71.6299 2.64 72.1299 2.82C72.6499 2.98 73.0699 3.2 73.3899 3.48C73.7299 3.74 73.8999 4.05 73.8999 4.41C73.8999 4.69 73.7999 4.96 73.5999 5.22C73.4199 5.46 73.3299 5.73 73.3299 6.03ZM85.1248 12.42C85.2048 12.28 85.3448 12.21 85.5448 12.21C85.6448 12.21 85.7148 12.27 85.7548 12.39C85.7948 12.51 85.8148 12.61 85.8148 12.69C85.7948 13.31 85.6548 13.87 85.3948 14.37C85.1548 14.85 84.8948 15.27 84.6148 15.63C84.4548 15.85 84.2748 16.05 84.0748 16.23C83.8948 16.41 83.7048 16.58 83.5048 16.74C83.4848 17.08 83.4648 17.32 83.4448 17.46C83.4448 17.58 83.4348 17.68 83.4148 17.76C83.3748 18.06 83.2748 18.44 83.1148 18.9C82.9548 19.36 82.7248 19.81 82.4248 20.25C82.1448 20.69 81.7948 21.06 81.3748 21.36C80.9748 21.68 80.5048 21.84 79.9648 21.84C79.7848 21.84 79.5748 21.82 79.3348 21.78C79.1148 21.74 78.8848 21.68 78.6448 21.6C78.4048 21.54 78.1748 21.46 77.9548 21.36C77.7348 21.28 77.5448 21.19 77.3848 21.09C76.8848 20.81 76.4748 20.48 76.1548 20.1C75.8348 19.72 75.5848 19.32 75.4048 18.9C75.2448 18.46 75.1348 18.02 75.0748 17.58C75.0148 17.12 74.9848 16.68 74.9848 16.26C74.9848 15.54 75.0548 14.81 75.1948 14.07C75.3548 13.33 75.5448 12.62 75.7648 11.94C75.9848 11.26 76.2348 10.65 76.5148 10.11C76.7948 9.57 77.0648 9.15 77.3248 8.85C77.5848 8.57 77.8748 8.38 78.1948 8.28C78.5148 8.16 78.8048 8.1 79.0648 8.1C79.3848 8.1 79.7048 8.18 80.0248 8.34C80.3448 8.5 80.6548 8.7 80.9548 8.94C81.2548 9.18 81.5448 9.46 81.8248 9.78C82.1248 10.08 82.4048 10.38 82.6648 10.68C82.8648 10.9 83.0148 11.26 83.1148 11.76C83.2148 12.24 83.2948 12.73 83.3548 13.23C83.3948 13.51 83.4248 13.81 83.4448 14.13C83.4648 14.45 83.4748 14.78 83.4748 15.12C83.7748 14.88 84.0148 14.63 84.1948 14.37C84.3748 14.09 84.5148 13.83 84.6148 13.59C84.7348 13.35 84.8248 13.13 84.8848 12.93C84.9648 12.71 85.0448 12.54 85.1248 12.42ZM81.7348 15C81.7348 14.92 81.7248 14.74 81.7048 14.46C81.7048 14.18 81.6848 13.85 81.6448 13.47C81.6248 13.09 81.5748 12.7 81.4948 12.3C81.4348 11.88 81.3348 11.5 81.1948 11.16C81.0748 10.82 80.9148 10.54 80.7148 10.32C80.5148 10.08 80.2648 9.96 79.9648 9.96C79.6648 9.96 79.3748 10.08 79.0948 10.32C78.8148 10.56 78.5648 10.87 78.3448 11.25C78.1248 11.63 77.9448 12.06 77.8048 12.54C77.6848 13.02 77.6248 13.49 77.6248 13.95C77.6248 14.75 77.7848 15.34 78.1048 15.72C78.4248 16.08 78.9748 16.26 79.7548 16.26C80.3348 16.26 80.8048 16.17 81.1648 15.99C81.5448 15.81 81.7348 15.67 81.7348 15.57V15ZM81.5848 17.46C81.3448 17.62 81.0148 17.74 80.5948 17.82C80.1748 17.9 79.8248 17.94 79.5448 17.94C79.0048 17.94 78.5848 17.9 78.2848 17.82C78.0048 17.74 77.6948 17.58 77.3548 17.34L77.3248 17.97C77.3248 18.19 77.3548 18.42 77.4148 18.66C77.4748 18.9 77.5648 19.12 77.6848 19.32C77.8248 19.52 78.0148 19.69 78.2548 19.83C78.4948 19.95 78.7948 20.01 79.1548 20.01C79.5948 20.01 79.9648 19.93 80.2648 19.77C80.5848 19.59 80.8348 19.37 81.0148 19.11C81.2148 18.85 81.3548 18.57 81.4348 18.27C81.5348 17.97 81.5848 17.7 81.5848 17.46ZM92.2093 19.62C91.8093 19.22 91.4793 18.61 91.2193 17.79C91.1593 17.91 91.0793 18.17 90.9793 18.57C90.8993 18.97 90.7693 19.39 90.5893 19.83C90.4093 20.25 90.1693 20.64 89.8693 21C89.5893 21.34 89.2293 21.51 88.7893 21.51C87.5093 21.51 86.6293 21.14 86.1493 20.4C85.6693 19.66 85.3893 18.57 85.3093 17.13V9.9C85.3493 9.76 85.3693 9.66 85.3693 9.6C85.3893 9.54 85.4793 9.51 85.6393 9.51C85.7393 9.51 85.9093 9.53 86.1493 9.57C86.4093 9.61 86.6693 9.67 86.9293 9.75C87.1893 9.81 87.4193 9.9 87.6193 10.02C87.8393 10.14 87.9493 10.28 87.9493 10.44V15.75C87.9493 16.11 87.9493 16.51 87.9493 16.95C87.9693 17.39 87.9993 17.8 88.0393 18.18C88.0993 18.54 88.1893 18.85 88.3093 19.11C88.4293 19.35 88.5993 19.47 88.8193 19.47C89.3993 19.47 89.8493 18.89 90.1693 17.73C90.4893 16.55 90.6693 14.7 90.7093 12.18C90.7093 12.02 90.6693 11.86 90.5893 11.7C90.5093 11.54 90.4693 11.35 90.4693 11.13C90.5093 10.97 90.6693 10.87 90.9493 10.83C91.2493 10.79 91.5193 10.77 91.7593 10.77C92.3593 10.77 92.7993 10.83 93.0793 10.95C93.3593 11.07 93.4993 11.43 93.4993 12.03C93.4593 12.39 93.4193 12.68 93.3793 12.9C93.3593 13.1 93.3393 13.29 93.3193 13.47C93.3193 13.63 93.3093 13.81 93.2893 14.01C93.2893 14.19 93.2893 14.46 93.2893 14.82C93.2893 15.28 93.3093 15.76 93.3493 16.26C93.3893 16.76 93.4593 17.22 93.5593 17.64C93.6593 18.06 93.7793 18.41 93.9193 18.69C94.0793 18.95 94.2793 19.08 94.5193 19.08C94.7393 19.08 94.9093 19.02 95.0293 18.9C95.1493 18.76 95.2593 18.61 95.3593 18.45C95.4593 18.29 95.5593 18.15 95.6593 18.03C95.7593 17.89 95.8993 17.82 96.0793 17.82C96.2393 17.82 96.3593 17.88 96.4393 18C96.5193 18.1 96.5593 18.2 96.5593 18.3C96.5593 18.68 96.4593 19 96.2593 19.26C96.0793 19.52 95.8493 19.73 95.5693 19.89C95.3093 20.05 95.0393 20.17 94.7593 20.25C94.4793 20.31 94.2493 20.34 94.0693 20.34C93.7293 20.34 93.4393 20.3 93.1993 20.22C92.9593 20.14 92.7193 20.02 92.4793 19.86L92.2093 19.62ZM100.439 14.46C100.139 14.88 99.8891 15.35 99.6891 15.87C99.5091 16.37 99.3491 16.9 99.2091 17.46C99.0691 18 98.9491 18.55 98.8491 19.11C98.7691 19.65 98.6791 20.17 98.5791 20.67C98.5391 20.79 98.3791 20.87 98.0991 20.91C97.8391 20.95 97.6491 20.97 97.5291 20.97C97.1691 20.97 96.8691 20.95 96.6291 20.91C96.4091 20.87 96.2391 20.78 96.1191 20.64C95.9991 20.48 95.9091 20.25 95.8491 19.95C95.7891 19.63 95.7391 19.21 95.6991 18.69L96.0891 9.78C96.0891 9.52 96.2291 9.39 96.5091 9.39C96.6091 9.39 96.7491 9.41 96.9291 9.45C97.1091 9.47 97.2991 9.51 97.4991 9.57C97.6991 9.63 97.8691 9.71 98.0091 9.81C98.1491 9.89 98.2191 9.99 98.2191 10.11V16.2C98.2391 16.18 98.2691 16.1 98.3091 15.96C98.4491 15.6 98.6191 15.16 98.8191 14.64C99.0191 14.1 99.2391 13.59 99.4791 13.11C99.7191 12.63 99.9691 12.22 100.229 11.88C100.509 11.54 100.789 11.37 101.069 11.37C101.429 11.37 101.699 11.46 101.879 11.64C102.079 11.8 102.229 12.01 102.329 12.27C102.429 12.53 102.489 12.81 102.509 13.11C102.529 13.41 102.539 13.7 102.539 13.98C102.539 14.18 102.519 14.51 102.479 14.97C102.439 15.43 102.419 16.12 102.419 17.04C102.419 17.56 102.469 18.03 102.569 18.45C102.669 18.87 102.869 19.08 103.169 19.08C103.389 19.08 103.589 18.98 103.769 18.78C103.949 18.58 104.109 18.33 104.249 18.03C104.409 17.73 104.539 17.41 104.639 17.07C104.739 16.73 104.799 16.41 104.819 16.11C104.839 15.73 104.989 15.54 105.269 15.54C105.449 15.54 105.569 15.6 105.629 15.72C105.689 15.84 105.719 15.98 105.719 16.14V16.2C105.699 16.6 105.619 17.05 105.479 17.55C105.359 18.05 105.169 18.52 104.909 18.96C104.669 19.4 104.349 19.77 103.949 20.07C103.549 20.37 103.059 20.52 102.479 20.52C101.579 20.52 100.999 20.2 100.739 19.56C100.499 18.9 100.379 17.93 100.379 16.65L100.439 14.46ZM117.23 15.87C117.19 16.31 117.1 16.81 116.96 17.37C116.84 17.93 116.65 18.46 116.39 18.96C116.15 19.46 115.82 19.88 115.4 20.22C115 20.56 114.51 20.73 113.93 20.73C113.07 20.73 112.44 20.53 112.04 20.13C111.66 19.73 111.34 19.11 111.08 18.27L111.05 18.42C110.97 18.74 110.87 19.09 110.75 19.47C110.65 19.85 110.5 20.2 110.3 20.52C110.12 20.82 109.89 21.07 109.61 21.27C109.33 21.49 108.97 21.6 108.53 21.6C108.23 21.6 107.93 21.54 107.63 21.42C107.35 21.32 107.05 21.19 106.73 21.03C106.27 20.79 105.91 20.47 105.65 20.07C105.39 19.67 105.2 19.26 105.08 18.84C104.96 18.42 104.89 18.02 104.87 17.64C104.85 17.24 104.84 16.93 104.84 16.71V16.2C104.84 16.08 104.87 15.82 104.93 15.42C104.99 15.02 105.08 14.56 105.2 14.04C105.34 13.5 105.5 12.94 105.68 12.36C105.88 11.78 106.11 11.25 106.37 10.77C106.65 10.29 106.96 9.89 107.3 9.57C107.66 9.25 108.06 9.09 108.5 9.09C108.98 9.09 109.44 9.17 109.88 9.33C110.34 9.49 110.67 9.61 110.87 9.69C110.89 9.33 110.9 8.89 110.9 8.37C110.92 7.85 110.93 7.34 110.93 6.84C110.95 6.32 110.96 5.84 110.96 5.4C110.96 4.96 110.96 4.63 110.96 4.41C110.96 3.89 110.95 3.45 110.93 3.09C110.91 2.71 110.87 2.39 110.81 2.13C110.77 1.87 110.72 1.66 110.66 1.5C110.6 1.34 110.53 1.2 110.45 1.08C110.79 0.979999 111.12 0.909999 111.44 0.87C111.78 0.829999 112.09 0.809999 112.37 0.809999C112.83 0.809999 113.18 0.849999 113.42 0.929999C113.68 0.99 113.81 1.16 113.81 1.44C113.81 1.56 113.78 1.91 113.72 2.49C113.66 3.07 113.6 3.83 113.54 4.77C113.48 5.69 113.42 6.76 113.36 7.98C113.3 9.2 113.27 10.5 113.27 11.88V14.91C113.27 15.47 113.28 16.01 113.3 16.53C113.32 17.03 113.36 17.48 113.42 17.88C113.5 18.26 113.61 18.57 113.75 18.81C113.89 19.03 114.09 19.14 114.35 19.14C114.93 19.14 115.36 18.81 115.64 18.15C115.94 17.47 116.18 16.41 116.36 14.97C116.38 14.81 116.42 14.67 116.48 14.55C116.54 14.43 116.67 14.37 116.87 14.37C117.05 14.37 117.16 14.49 117.2 14.73C117.26 14.95 117.28 15.17 117.26 15.39L117.23 15.87ZM110.9 11.52C110.9 11.46 110.85 11.39 110.75 11.31C110.67 11.23 110.56 11.15 110.42 11.07C110.3 10.99 110.17 10.92 110.03 10.86C109.89 10.8 109.77 10.77 109.67 10.77C109.27 10.77 108.91 11.02 108.59 11.52C108.29 12 108.03 12.6 107.81 13.32C107.61 14.04 107.46 14.81 107.36 15.63C107.26 16.45 107.21 17.18 107.21 17.82C107.21 18.06 107.22 18.34 107.24 18.66C107.26 18.98 107.31 19.28 107.39 19.56C107.47 19.84 107.58 20.08 107.72 20.28C107.86 20.48 108.05 20.58 108.29 20.58C108.55 20.58 108.79 20.43 109.01 20.13C109.23 19.83 109.43 19.44 109.61 18.96C109.79 18.48 109.95 17.94 110.09 17.34C110.25 16.74 110.38 16.15 110.48 15.57C110.6 14.97 110.69 14.41 110.75 13.89C110.81 13.35 110.85 12.92 110.87 12.6L110.9 11.52ZM123.38 19.14C123.38 19.62 123.22 19.99 122.9 20.25C122.58 20.51 122.21 20.7 121.79 20.82C121.39 20.94 120.98 21.01 120.56 21.03C120.16 21.07 119.87 21.09 119.69 21.09C119.41 21.09 119.06 21.06 118.64 21C118.24 20.94 117.84 20.85 117.44 20.73C117.06 20.59 116.73 20.4 116.45 20.16C116.19 19.92 116.06 19.62 116.06 19.26C116.06 19.04 116.14 18.89 116.3 18.81C116.48 18.71 116.65 18.66 116.81 18.66C117.03 18.66 117.24 18.74 117.44 18.9C117.66 19.06 117.88 19.23 118.1 19.41C118.34 19.59 118.6 19.76 118.88 19.92C119.16 20.08 119.48 20.16 119.84 20.16C120 20.16 120.21 20.11 120.47 20.01C120.75 19.89 120.89 19.69 120.89 19.41C120.89 19.13 120.77 18.86 120.53 18.6C120.31 18.34 120.02 18.07 119.66 17.79C119.32 17.51 118.95 17.22 118.55 16.92C118.15 16.62 117.77 16.3 117.41 15.96C117.07 15.6 116.78 15.21 116.54 14.79C116.32 14.37 116.21 13.91 116.21 13.41C116.21 12.71 116.43 12.12 116.87 11.64C117.33 11.16 117.86 10.78 118.46 10.5C119.08 10.22 119.71 10.02 120.35 9.9C120.99 9.78 121.49 9.72 121.85 9.72C122.19 9.72 122.53 9.79 122.87 9.93C123.21 10.07 123.38 10.34 123.38 10.74C123.38 10.86 123.35 11.04 123.29 11.28C123.25 11.5 123.17 11.72 123.05 11.94C122.95 12.16 122.81 12.36 122.63 12.54C122.45 12.7 122.22 12.78 121.94 12.78C121.86 12.78 121.78 12.75 121.7 12.69C121.62 12.61 121.53 12.53 121.43 12.45C121.33 12.35 121.22 12.27 121.1 12.21C121 12.13 120.88 12.09 120.74 12.09C120.04 12.09 119.55 12.3 119.27 12.72C118.99 13.12 118.85 13.55 118.85 14.01C118.85 14.41 119.08 14.83 119.54 15.27C120.02 15.71 120.54 16.15 121.1 16.59C121.68 17.03 122.2 17.47 122.66 17.91C123.14 18.33 123.38 18.74 123.38 19.14ZM128.376 12.93C129.276 12.93 130.006 12.92 130.566 12.9C131.126 12.86 131.656 12.79 132.156 12.69C132.156 12.69 132.196 12.74 132.276 12.84C132.356 12.94 132.436 13.07 132.516 13.23C132.616 13.37 132.706 13.53 132.786 13.71C132.866 13.89 132.906 14.07 132.906 14.25C132.906 14.53 132.826 14.81 132.666 15.09C132.506 15.35 132.156 15.48 131.616 15.48H131.436C131.096 15.48 130.666 15.46 130.146 15.42C129.626 15.36 128.896 15.33 127.956 15.33H127.476C127.016 15.33 126.596 15.18 126.216 14.88C125.836 14.58 125.646 14.2 125.646 13.74C125.646 13.46 125.706 13.24 125.826 13.08C125.946 12.9 126.176 12.81 126.516 12.81H126.606C126.786 12.83 126.906 12.85 126.966 12.87C127.026 12.89 127.096 12.91 127.176 12.93C127.256 12.93 127.376 12.93 127.536 12.93C127.716 12.93 127.996 12.93 128.376 12.93ZM147.615 16.62C147.475 17.16 147.245 17.72 146.925 18.3C146.625 18.88 146.245 19.43 145.785 19.95C145.105 20.73 144.355 21.25 143.535 21.51C142.715 21.77 141.975 21.9 141.315 21.9C139.335 21.9 137.865 21.14 136.905 19.62C135.965 18.1 135.495 15.91 135.495 13.05C135.495 11.55 135.625 10.15 135.885 8.85C136.165 7.55 136.535 6.42 136.995 5.46C137.455 4.48 137.995 3.71 138.615 3.15C139.255 2.59 139.935 2.31 140.655 2.31H141.285C141.645 2.31 141.945 2.36 142.185 2.46C142.445 2.56 142.685 2.69 142.905 2.85C143.145 2.99 143.385 3.15 143.625 3.33C143.865 3.49 144.165 3.65 144.525 3.81C145.125 4.07 145.525 4.55 145.725 5.25C145.925 5.93 146.025 6.66 146.025 7.44C146.025 7.72 146.015 8.01 145.995 8.31C145.995 8.61 145.945 8.89 145.845 9.15C145.745 9.39 145.585 9.6 145.365 9.78C145.145 9.96 144.825 10.07 144.405 10.11C143.825 10.11 143.425 9.91 143.205 9.51C142.985 9.11 142.875 8.68 142.875 8.22C142.875 7.96 142.895 7.65 142.935 7.29C142.975 6.91 142.995 6.53 142.995 6.15C142.995 5.65 142.915 5.21 142.755 4.83C142.615 4.45 142.315 4.26 141.855 4.26C141.115 4.26 140.505 4.53 140.025 5.07C139.565 5.59 139.195 6.26 138.915 7.08C138.655 7.9 138.465 8.81 138.345 9.81C138.245 10.81 138.195 11.78 138.195 12.72C138.195 13.68 138.215 14.57 138.255 15.39C138.315 16.19 138.445 16.91 138.645 17.55C138.845 18.19 139.135 18.75 139.515 19.23C139.895 19.69 140.425 20.07 141.105 20.37C141.385 20.49 141.695 20.55 142.035 20.55C142.535 20.55 143.005 20.44 143.445 20.22C143.905 19.98 144.305 19.67 144.645 19.29C144.985 18.91 145.255 18.48 145.455 18C145.655 17.5 145.755 16.99 145.755 16.47C145.755 15.95 145.845 15.49 146.025 15.09C146.225 14.69 146.545 14.49 146.985 14.49C147.305 14.49 147.515 14.59 147.615 14.79C147.715 14.99 147.765 15.22 147.765 15.48C147.765 15.94 147.715 16.32 147.615 16.62ZM154.438 20.13C154.438 20.37 154.348 20.58 154.168 20.76C154.008 20.94 153.798 21.1 153.538 21.24C153.298 21.38 153.038 21.48 152.758 21.54C152.498 21.62 152.278 21.66 152.098 21.66C151.758 21.66 151.378 21.62 150.958 21.54C150.558 21.48 150.218 21.34 149.938 21.12C149.618 20.86 149.348 20.45 149.128 19.89C148.928 19.31 148.768 18.63 148.648 17.85C148.548 17.05 148.478 16.17 148.438 15.21C148.398 14.23 148.378 13.21 148.378 12.15C148.378 11.71 148.388 11.22 148.408 10.68C148.448 10.14 148.488 9.58 148.528 9C148.568 8.4 148.618 7.81 148.678 7.23C148.738 6.63 148.798 6.06 148.858 5.52C148.918 5.14 148.988 4.73 149.068 4.29C149.148 3.85 149.228 3.43 149.308 3.03C149.408 2.63 149.518 2.27 149.638 1.95C149.758 1.63 149.888 1.4 150.028 1.26C150.188 1.1 150.398 0.999999 150.658 0.959999C150.938 0.899999 151.188 0.87 151.408 0.87C151.868 0.87 152.238 0.99 152.518 1.23C152.798 1.47 153.008 1.8 153.148 2.22C153.308 2.62 153.408 3.09 153.448 3.63C153.508 4.15 153.538 4.71 153.538 5.31C153.538 6.23 153.508 7.23 153.448 8.31C153.388 9.37 153.258 10.44 153.058 11.52C152.878 12.6 152.608 13.65 152.248 14.67C151.908 15.69 151.448 16.62 150.868 17.46C150.888 17.74 150.918 18.07 150.958 18.45C151.018 18.81 151.098 19.15 151.198 19.47C151.298 19.79 151.428 20.06 151.588 20.28C151.748 20.5 151.958 20.61 152.218 20.61C152.458 20.61 152.648 20.56 152.788 20.46C152.928 20.34 153.048 20.21 153.148 20.07C153.268 19.93 153.378 19.81 153.478 19.71C153.598 19.59 153.748 19.53 153.928 19.53C154.128 19.53 154.258 19.59 154.318 19.71C154.398 19.83 154.438 19.97 154.438 20.13ZM152.188 6.03C152.188 5.83 152.178 5.59 152.158 5.31C152.158 5.03 152.128 4.76 152.068 4.5C152.028 4.22 151.968 3.99 151.888 3.81C151.808 3.61 151.698 3.51 151.558 3.51C151.358 3.51 151.198 3.79 151.078 4.35C150.958 4.91 150.858 5.65 150.778 6.57C150.718 7.47 150.668 8.5 150.628 9.66C150.608 10.8 150.598 11.96 150.598 13.14C150.598 13.48 150.598 13.84 150.598 14.22C150.598 14.58 150.618 14.9 150.658 15.18C151.318 13.6 151.738 12.07 151.918 10.59C152.098 9.11 152.188 7.59 152.188 6.03ZM164.344 12.42C164.424 12.28 164.564 12.21 164.764 12.21C164.864 12.21 164.934 12.27 164.974 12.39C165.014 12.51 165.034 12.61 165.034 12.69C165.014 13.31 164.874 13.87 164.614 14.37C164.374 14.85 164.114 15.27 163.834 15.63C163.674 15.85 163.494 16.05 163.294 16.23C163.114 16.41 162.924 16.58 162.724 16.74C162.704 17.08 162.684 17.32 162.664 17.46C162.664 17.58 162.654 17.68 162.634 17.76C162.594 18.06 162.494 18.44 162.334 18.9C162.174 19.36 161.944 19.81 161.644 20.25C161.364 20.69 161.014 21.06 160.594 21.36C160.194 21.68 159.724 21.84 159.184 21.84C159.004 21.84 158.794 21.82 158.554 21.78C158.334 21.74 158.104 21.68 157.864 21.6C157.624 21.54 157.394 21.46 157.174 21.36C156.954 21.28 156.764 21.19 156.604 21.09C156.104 20.81 155.694 20.48 155.374 20.1C155.054 19.72 154.804 19.32 154.624 18.9C154.464 18.46 154.354 18.02 154.294 17.58C154.234 17.12 154.204 16.68 154.204 16.26C154.204 15.54 154.274 14.81 154.414 14.07C154.574 13.33 154.764 12.62 154.984 11.94C155.204 11.26 155.454 10.65 155.734 10.11C156.014 9.57 156.284 9.15 156.544 8.85C156.804 8.57 157.094 8.38 157.414 8.28C157.734 8.16 158.024 8.1 158.284 8.1C158.604 8.1 158.924 8.18 159.244 8.34C159.564 8.5 159.874 8.7 160.174 8.94C160.474 9.18 160.764 9.46 161.044 9.78C161.344 10.08 161.624 10.38 161.884 10.68C162.084 10.9 162.234 11.26 162.334 11.76C162.434 12.24 162.514 12.73 162.574 13.23C162.614 13.51 162.644 13.81 162.664 14.13C162.684 14.45 162.694 14.78 162.694 15.12C162.994 14.88 163.234 14.63 163.414 14.37C163.594 14.09 163.734 13.83 163.834 13.59C163.954 13.35 164.044 13.13 164.104 12.93C164.184 12.71 164.264 12.54 164.344 12.42ZM160.954 15C160.954 14.92 160.944 14.74 160.924 14.46C160.924 14.18 160.904 13.85 160.864 13.47C160.844 13.09 160.794 12.7 160.714 12.3C160.654 11.88 160.554 11.5 160.414 11.16C160.294 10.82 160.134 10.54 159.934 10.32C159.734 10.08 159.484 9.96 159.184 9.96C158.884 9.96 158.594 10.08 158.314 10.32C158.034 10.56 157.784 10.87 157.564 11.25C157.344 11.63 157.164 12.06 157.024 12.54C156.904 13.02 156.844 13.49 156.844 13.95C156.844 14.75 157.004 15.34 157.324 15.72C157.644 16.08 158.194 16.26 158.974 16.26C159.554 16.26 160.024 16.17 160.384 15.99C160.764 15.81 160.954 15.67 160.954 15.57V15ZM160.804 17.46C160.564 17.62 160.234 17.74 159.814 17.82C159.394 17.9 159.044 17.94 158.764 17.94C158.224 17.94 157.804 17.9 157.504 17.82C157.224 17.74 156.914 17.58 156.574 17.34L156.544 17.97C156.544 18.19 156.574 18.42 156.634 18.66C156.694 18.9 156.784 19.12 156.904 19.32C157.044 19.52 157.234 19.69 157.474 19.83C157.714 19.95 158.014 20.01 158.374 20.01C158.814 20.01 159.184 19.93 159.484 19.77C159.804 19.59 160.054 19.37 160.234 19.11C160.434 18.85 160.574 18.57 160.654 18.27C160.754 17.97 160.804 17.7 160.804 17.46ZM168.818 14.46C168.518 14.88 168.268 15.35 168.068 15.87C167.888 16.37 167.728 16.9 167.588 17.46C167.448 18 167.328 18.55 167.228 19.11C167.148 19.65 167.058 20.17 166.958 20.67C166.918 20.79 166.758 20.87 166.478 20.91C166.218 20.95 166.028 20.97 165.908 20.97C165.548 20.97 165.248 20.95 165.008 20.91C164.788 20.87 164.618 20.78 164.498 20.64C164.378 20.48 164.288 20.25 164.228 19.95C164.168 19.63 164.118 19.21 164.078 18.69L164.468 9.78C164.468 9.52 164.608 9.39 164.888 9.39C164.988 9.39 165.128 9.41 165.308 9.45C165.488 9.47 165.678 9.51 165.878 9.57C166.078 9.63 166.248 9.71 166.388 9.81C166.528 9.89 166.598 9.99 166.598 10.11V16.2C166.618 16.18 166.648 16.1 166.688 15.96C166.828 15.6 166.998 15.16 167.198 14.64C167.398 14.1 167.618 13.59 167.858 13.11C168.098 12.63 168.348 12.22 168.608 11.88C168.888 11.54 169.168 11.37 169.448 11.37C169.808 11.37 170.078 11.46 170.258 11.64C170.458 11.8 170.608 12.01 170.708 12.27C170.808 12.53 170.868 12.81 170.888 13.11C170.908 13.41 170.918 13.7 170.918 13.98C170.918 14.18 170.898 14.51 170.858 14.97C170.818 15.43 170.798 16.12 170.798 17.04C170.798 17.56 170.848 18.03 170.948 18.45C171.048 18.87 171.248 19.08 171.548 19.08C171.768 19.08 171.968 18.98 172.148 18.78C172.328 18.58 172.488 18.33 172.628 18.03C172.788 17.73 172.918 17.41 173.018 17.07C173.118 16.73 173.178 16.41 173.198 16.11C173.218 15.73 173.368 15.54 173.648 15.54C173.828 15.54 173.948 15.6 174.008 15.72C174.068 15.84 174.098 15.98 174.098 16.14V16.2C174.078 16.6 173.998 17.05 173.858 17.55C173.738 18.05 173.548 18.52 173.288 18.96C173.048 19.4 172.728 19.77 172.328 20.07C171.928 20.37 171.438 20.52 170.858 20.52C169.958 20.52 169.378 20.2 169.118 19.56C168.878 18.9 168.758 17.93 168.758 16.65L168.818 14.46ZM182.189 16.38C182.189 16.88 182.099 17.44 181.919 18.06C181.739 18.68 181.459 19.26 181.079 19.8C180.699 20.32 180.209 20.76 179.609 21.12C179.029 21.48 178.329 21.66 177.509 21.66C176.729 21.66 176.069 21.52 175.529 21.24C174.989 20.96 174.539 20.58 174.179 20.1C173.839 19.62 173.589 19.06 173.429 18.42C173.289 17.76 173.219 17.07 173.219 16.35C173.219 15.65 173.299 14.88 173.459 14.04C173.619 13.2 173.869 12.42 174.209 11.7C174.549 10.96 174.979 10.35 175.499 9.87C176.019 9.37 176.649 9.12 177.389 9.12C177.749 9.12 178.089 9.2 178.409 9.36C178.729 9.5 179.009 9.69 179.249 9.93C179.489 10.17 179.679 10.45 179.819 10.77C179.959 11.09 180.039 11.42 180.059 11.76L180.089 12.18C180.089 12.66 180.009 13.19 179.849 13.77C179.689 14.33 179.459 14.86 179.159 15.36C178.859 15.84 178.489 16.25 178.049 16.59C177.609 16.91 177.109 17.07 176.549 17.07C176.449 17.07 176.319 17.06 176.159 17.04C176.019 17.02 175.879 16.99 175.739 16.95V17.82C175.739 17.96 175.779 18.16 175.859 18.42C175.959 18.68 176.099 18.94 176.279 19.2C176.459 19.44 176.689 19.66 176.969 19.86C177.269 20.04 177.629 20.13 178.049 20.13C178.629 20.13 179.099 20.02 179.459 19.8C179.839 19.56 180.149 19.26 180.389 18.9C180.629 18.54 180.809 18.14 180.929 17.7C181.069 17.24 181.179 16.8 181.259 16.38C181.319 16.1 181.379 15.91 181.439 15.81C181.499 15.71 181.599 15.66 181.739 15.66C182.039 15.66 182.189 15.83 182.189 16.17V16.38ZM178.649 11.73C178.649 11.57 178.599 11.4 178.499 11.22C178.419 11.04 178.259 10.95 178.019 10.95C177.659 10.95 177.349 11.14 177.089 11.52C176.829 11.9 176.609 12.34 176.429 12.84C176.269 13.32 176.149 13.79 176.069 14.25C175.989 14.69 175.949 14.98 175.949 15.12V15.21C175.949 15.39 175.959 15.54 175.979 15.66C176.019 15.76 176.129 15.81 176.309 15.81H176.459C176.859 15.81 177.199 15.66 177.479 15.36C177.759 15.06 177.979 14.7 178.139 14.28C178.319 13.86 178.449 13.43 178.529 12.99C178.609 12.55 178.649 12.19 178.649 11.91V11.73Z" fill="black"/>
</svg>
