<svg width="40" height="40" viewBox="0 0 40 40" fill="none" xmlns="http://www.w3.org/2000/svg">
<path d="M34.8024 20.59C32.8024 24.38 24.2224 30.96 21.1324 33.26C20.8093 33.5032 20.4168 33.6364 20.0124 33.64C19.6075 33.6393 19.2141 33.5058 18.8924 33.26C15.8024 30.96 7.24239 24.38 5.21239 20.59C4.01371 18.3603 3.6897 15.7637 4.30367 13.3078C4.91764 10.8519 6.42547 8.71331 8.5324 7.31002C9.87176 6.45839 11.4252 6.00414 13.0124 6.00001C14.3813 6.01818 15.727 6.35583 16.9423 6.98605C18.1576 7.61627 19.2089 8.52164 20.0124 9.63002C20.8143 8.51993 21.8652 7.61328 23.0809 6.98287C24.2965 6.35246 25.6431 6.01583 27.0124 6.00001C28.6131 5.99709 30.1813 6.4516 31.5324 7.31002C33.6327 8.71938 35.1318 10.8615 35.7365 13.3174C36.3412 15.7734 36.0081 18.3666 34.8024 20.59Z" fill="#4D4D4F"/>
</svg>
