<svg width="40" height="40" viewBox="0 0 40 40" fill="none" xmlns="http://www.w3.org/2000/svg">
<path d="M28.6854 26.6854C30.8271 24.0317 31.8694 20.6577 31.5976 17.2585C31.3259 13.8592 29.7607 10.6937 27.2246 8.41396C24.6886 6.13425 21.3747 4.91404 17.9658 5.00471C14.5569 5.09539 11.3126 6.49004 8.90134 8.90134C6.49004 11.3126 5.09539 14.5569 5.00471 17.9658C4.91404 21.3747 6.13425 24.6886 8.41396 27.2246C10.6937 29.7607 13.8592 31.3259 17.2585 31.5976C20.6577 31.8694 24.0317 30.8271 26.6854 28.6854L31.9354 33.9454C32.0665 34.0773 32.2223 34.1819 32.3939 34.2533C32.5655 34.3246 32.7495 34.3614 32.9354 34.3614C33.1213 34.3614 33.3053 34.3246 33.477 34.2533C33.6486 34.1819 33.8044 34.0773 33.9354 33.9454C34.0673 33.8144 34.1719 33.6586 34.2433 33.487C34.3146 33.3153 34.3514 33.1313 34.3514 32.9454C34.3514 32.7596 34.3146 32.5755 34.2433 32.4039C34.1719 32.2323 34.0673 32.0765 33.9354 31.9454L28.6854 26.6854ZM18.3254 28.8754C16.253 28.8834 14.2248 28.276 12.4978 27.1304C10.7707 25.9848 9.42253 24.3524 8.62394 22.4399C7.82535 20.5275 7.6123 18.4211 8.01176 16.3875C8.41122 14.3539 9.40522 12.4845 10.8679 11.0163C12.3305 9.54802 14.196 8.54687 16.2281 8.13963C18.2601 7.73239 20.3674 7.93738 22.2828 8.72864C24.1983 9.51991 25.8359 10.8618 26.9881 12.5845C28.1403 14.3071 28.7554 16.333 28.7554 18.4054C28.7528 21.1745 27.6544 23.83 25.7001 25.7918C23.7458 27.7536 21.0945 28.8622 18.3254 28.8754Z" fill="#4D4D4F"/>
</svg>
