<svg width="40" height="40" viewBox="0 0 40 40" fill="none" xmlns="http://www.w3.org/2000/svg">
<path d="M26.2959 3H13.7041C10.8652 3 8.14254 4.12807 6.13514 6.13604C4.12774 8.14402 3 10.8674 3 13.7071V26.2929C3 29.1326 4.12774 31.856 6.13514 33.864C8.14254 35.8719 10.8652 37 13.7041 37H26.2959C29.1348 37 31.8575 35.8719 33.8649 33.864C35.8723 31.856 37 29.1326 37 26.2929V13.6974C36.9974 10.8594 35.8685 8.13847 33.8614 6.1326C31.8543 4.12673 29.1331 3 26.2959 3ZM27.7848 20.696H20.7104V27.7724H19.3091V20.696H12.2347V19.2748H19.3091V12.1984H20.7298V19.2748H27.8042L27.7848 20.696Z" fill="#4D4D4F"/>
</svg>
