<svg width="40" height="40" viewBox="0 0 40 40" fill="none" xmlns="http://www.w3.org/2000/svg">
<path d="M 36 21.8 V 32.6 C 36 32.9 35.9 33.2 35.8 33.4 C 35.7 33.7 35.6 34 35.3 34.2 C 35.1 34.4 34.9 34.5 34.6 34.6 C 34.4 34.8 34.1 34.8 33.8 34.8 H 25.1 C 24.5 34.8 24 34.6 23.5 34.2 C 23.1 33.7 22.9 33.2 22.9 32.6 V 26 C 22.9 25.3 22.6 24.5 22 24 C 21.5 23.4 20.8 23.1 20 23.1 C 19.2 23.1 18.5 23.4 17.9 24 C 17.4 24.5 17.1 25.3 17.1 26 V 32.6 C 17.1 32.9 17 33.2 16.9 33.4 C 16.8 33.7 16.6 34 16.4 34.2 C 16.2 34.4 16 34.5 15.7 34.6 C 15.5 34.8 15.2 34.8 14.9 34.8 H 6.2 C 5.6 34.8 5.1 34.6 4.6 34.2 C 4.2 33.7 4 33.2 4 32.6 V 21.8 C 4 20.8 4.4 19.9 5.1 19.2 L 18.5 5.6 C 18.7 5.4 19 5.3 19.2 5.2 C 19.5 5.1 19.7 5 20 5 C 20.3 5 20.5 5.1 20.8 5.2 C 21 5.3 21.3 5.4 21.4 5.6 L 34.9 19.2 C 35.3 19.5 35.5 19.9 35.7 20.4 C 35.9 20.8 36 21.3 36 21.8 Z" fill="#4d4d4f"/>
</svg>
