<svg width="40" height="40" viewBox="0 0 40 40" fill="none" xmlns="http://www.w3.org/2000/svg">
<path d="M29.1004 13.4565C29.1042 15.5128 28.4293 17.5129 27.1803 19.1465C25.8263 20.9308 23.8819 22.1756 21.6946 22.6582C19.5072 23.1409 17.2195 22.8301 15.2403 21.7813C13.261 20.7325 11.7192 19.014 10.8904 16.9331C10.0616 14.8521 9.99971 12.5442 10.7159 10.4218C11.432 8.29946 12.8796 6.50089 14.7998 5.34755C16.72 4.19421 18.9877 3.76125 21.1978 4.12605C23.4078 4.49085 25.4161 5.62964 26.8638 7.3389C28.3115 9.04816 29.1043 11.2165 29.1004 13.4565Z" fill="#4D4D4F"/>
<path d="M36.4004 33.2565V34.5765C36.4019 34.6675 36.3846 34.7578 36.3496 34.8418C36.3146 34.9257 36.2625 35.0016 36.1968 35.0645C36.1311 35.1274 36.0531 35.176 35.9676 35.2074C35.8822 35.2387 35.7912 35.252 35.7004 35.2465H3.70035C3.60917 35.2536 3.51753 35.2413 3.4314 35.2106C3.34527 35.1798 3.2666 35.1312 3.20054 35.068C3.13447 35.0048 3.0825 34.9283 3.04801 34.8436C3.01351 34.7589 2.99728 34.6679 3.00037 34.5765V33.2565C3.00037 30.8934 3.9391 28.6271 5.61005 26.9561C7.281 25.2852 9.5473 24.3465 11.9104 24.3465H27.5404C29.8948 24.3597 32.1482 25.3042 33.8084 26.9738C35.4685 28.6433 36.4004 30.902 36.4004 33.2565Z" fill="#4D4D4F"/>
</svg>
