<svg width="40" height="40" viewBox="0 0 40 40" fill="none" xmlns="http://www.w3.org/2000/svg">
<path d="M31.4808 7.3C30.1386 6.45588 28.5864 6.00546 27.0008 6C25.6316 6.0166 24.2854 6.35357 23.0698 6.98392C21.8543 7.61427 20.8032 8.52048 20.0008 9.63C19.1984 8.52048 18.1473 7.61427 16.9318 6.98392C15.7162 6.35357 14.37 6.0166 13.0008 6C11.415 6.00385 9.86235 6.45439 8.5208 7.3C6.41546 8.70481 4.91026 10.8448 4.29988 13.3011C3.68951 15.7574 4.01792 18.3531 5.22081 20.58C7.22081 24.37 15.8108 30.96 18.9008 33.26C19.2234 33.5029 19.617 33.6329 20.0208 33.63C20.4242 33.63 20.8168 33.5003 21.1408 33.26C24.2308 30.96 32.7808 24.37 34.8108 20.58C36.0108 18.3497 36.3346 15.7515 35.7186 13.2949C35.1026 10.8382 33.5912 8.70024 31.4808 7.3ZM33.4808 19.93C31.9608 22.77 25.6308 28.09 20.2208 32.13C20.1482 32.1827 20.0606 32.2107 19.9708 32.21C19.8807 32.213 19.7924 32.1848 19.7208 32.13C14.3008 28.13 7.9708 22.77 6.4608 19.93C5.42747 18.0301 5.13973 15.8131 5.65383 13.7124C6.16792 11.6116 7.44689 9.77804 9.2408 8.57C10.3516 7.86905 11.6373 7.49479 12.9508 7.49C14.0932 7.49454 15.2183 7.76858 16.2349 8.28987C17.2514 8.81115 18.1305 9.56496 18.8008 10.49L19.9708 12.05L21.1308 10.49C21.8032 9.56477 22.6842 8.81099 23.7023 8.28977C24.7204 7.76855 25.8471 7.49456 26.9908 7.49C28.3043 7.49479 29.59 7.86905 30.7008 8.57C32.4947 9.77804 33.7737 11.6116 34.2878 13.7124C34.8019 15.8131 34.5141 18.0301 33.4808 19.93Z" fill="#4D4D4F"/>
</svg>
