<svg width="40" height="40" viewBox="0 0 40 40" fill="none" xmlns="http://www.w3.org/2000/svg">
<path d="M29.1136 28.1136C31.5321 25.4343 32.8082 21.9163 32.6698 18.3096C32.5315 14.7029 30.9897 11.2929 28.3731 8.80676C25.7565 6.32061 22.2722 4.95501 18.6632 5.00113C15.0541 5.04725 11.6058 6.50144 9.05364 9.05364C6.50145 11.6058 5.04725 15.0541 5.00113 18.6631C4.95501 22.2722 6.32061 25.7565 8.80676 28.3731C11.2929 30.9897 14.7029 32.5315 18.3096 32.6698C21.9163 32.8082 25.4343 31.532 28.1136 29.1136L34.9636 35.9636L35.9636 34.9636L29.1136 28.1136ZM18.8236 31.2936C16.379 31.2936 13.9893 30.5687 11.9567 29.2105C9.92414 27.8524 8.33993 25.922 7.40443 23.6635C6.46893 21.405 6.22416 18.9199 6.70107 16.5223C7.17799 14.1247 8.35517 11.9223 10.0837 10.1937C11.8123 8.46516 14.0147 7.28798 16.4123 6.81107C18.8099 6.33416 21.295 6.57893 23.5535 7.51443C25.812 8.44992 27.7424 10.0341 29.1005 12.0667C30.4587 14.0993 31.1836 16.489 31.1836 18.9336C31.1783 22.21 29.8744 25.3508 27.5576 27.6676C25.2408 29.9844 22.1 31.2883 18.8236 31.2936Z" fill="#4D4D4F"/>
</svg>
