<svg width="40" height="40" viewBox="0 0 40 40" fill="none" xmlns="http://www.w3.org/2000/svg">
<path d="M26.3093 3H13.7102C10.8697 3 8.14549 4.12839 6.13694 6.13694C4.12838 8.14549 3 10.8697 3 13.7102V26.2898C3 29.1303 4.12838 31.8545 6.13694 33.8631C8.14549 35.8716 10.8697 37 13.7102 37H26.3093C29.1498 37 31.874 35.8716 33.8825 33.8631C35.8911 31.8545 37.0195 29.1303 37.0195 26.2898V13.6907C37.0143 10.8536 35.8836 8.1344 33.8756 6.13006C31.8677 4.12572 29.1464 3 26.3093 3ZM35.5882 26.2898C35.5856 28.7499 34.6072 31.1086 32.8676 32.8481C31.128 34.5877 28.7694 35.5662 26.3093 35.5687H13.7102C11.2501 35.5662 8.89142 34.5877 7.15185 32.8481C5.41227 31.1086 4.43385 28.7499 4.43127 26.2898V13.6907C4.43642 11.2314 5.41566 8.87424 7.15468 7.13521C8.89371 5.39619 11.2509 4.41694 13.7102 4.4118H26.3093C28.7686 4.41694 31.1258 5.39619 32.8648 7.13521C34.6038 8.87424 35.5831 11.2314 35.5882 13.6907V26.2898Z" fill="#4D4D4F"/>
<path d="M20.7205 12.201H19.299V19.2795H12.2205V20.701H19.299V27.7795H20.7205V20.701H27.799V19.2795H20.7205V12.201Z" fill="#4D4D4F"/>
</svg>
