<svg width="40" height="40" viewBox="0 0 40 40" fill="none" xmlns="http://www.w3.org/2000/svg">
<path d="M34.92 19.1309L21.44 5.60086C21.2497 5.41038 21.0236 5.25926 20.7748 5.15616C20.526 5.05306 20.2593 5 19.99 5C19.7207 5 19.454 5.05306 19.2052 5.15616C18.9565 5.25926 18.7304 5.41038 18.54 5.60086L5.07003 19.1309C4.72879 19.4742 4.45864 19.8814 4.27503 20.3293C4.09142 20.7771 3.99797 21.2568 4.00003 21.7409V32.6109C3.99872 32.9006 4.05465 33.1878 4.16462 33.4558C4.27459 33.7239 4.43643 33.9676 4.64085 34.173C4.84527 34.3783 5.08824 34.5413 5.35581 34.6524C5.62339 34.7636 5.91028 34.8209 6.20003 34.8209H14.88C15.4662 34.8209 16.0283 34.588 16.4427 34.1736C16.8572 33.7591 17.09 33.197 17.09 32.6109V26.0209C17.0668 25.625 17.1247 25.2286 17.2602 24.856C17.3957 24.4834 17.6059 24.1423 17.8779 23.8539C18.15 23.5654 18.4781 23.3356 18.8421 23.1785C19.2062 23.0214 19.5985 22.9403 19.995 22.9403C20.3915 22.9403 20.7839 23.0214 21.1479 23.1785C21.512 23.3356 21.8401 23.5654 22.1121 23.8539C22.3842 24.1423 22.5944 24.4834 22.7299 24.856C22.8654 25.2286 22.9233 25.625 22.9 26.0209V32.5809C22.9 33.167 23.1329 33.7291 23.5473 34.1436C23.9618 34.558 24.5239 34.7909 25.11 34.7909H33.82C34.1098 34.7909 34.3967 34.7336 34.6643 34.6224C34.9318 34.5113 35.1748 34.3483 35.3792 34.143C35.5836 33.9376 35.7455 33.6939 35.8554 33.4258C35.9654 33.1578 36.0213 32.8706 36.02 32.5809V21.7409C36.0182 21.2547 35.92 20.7738 35.7312 20.3258C35.5424 19.8778 35.2667 19.4717 34.92 19.1309ZM34.54 32.6109C34.5374 32.809 34.4576 32.9982 34.3175 33.1383C34.1774 33.2784 33.9881 33.3583 33.79 33.3609H25.11C24.9111 33.3609 24.7204 33.2818 24.5797 33.1412C24.4391 33.0005 24.36 32.8098 24.36 32.6109V26.0209C24.3883 25.4301 24.2964 24.8397 24.0898 24.2855C23.8832 23.7312 23.5662 23.2247 23.1581 22.7966C22.75 22.3685 22.2592 22.0277 21.7155 21.7948C21.1718 21.5619 20.5865 21.4419 19.995 21.4419C19.4036 21.4419 18.8182 21.5619 18.2745 21.7948C17.7308 22.0277 17.2401 22.3685 16.832 22.7966C16.4238 23.2247 16.1069 23.7312 15.9003 24.2855C15.6937 24.8397 15.6017 25.4301 15.63 26.0209V32.5809C15.63 32.7798 15.551 32.9705 15.4104 33.1112C15.2697 33.2518 15.0789 33.3309 14.88 33.3309H6.20003C6.00193 33.3283 5.81266 33.2484 5.67257 33.1083C5.53247 32.9682 5.45262 32.779 5.45003 32.5809V21.7409C5.44832 21.4491 5.50493 21.1599 5.61656 20.8903C5.72818 20.6206 5.89255 20.3761 6.10003 20.1709L19.57 6.63086C19.6254 6.57625 19.691 6.53311 19.7631 6.50394C19.8351 6.47476 19.9123 6.46012 19.99 6.46086C20.1501 6.4589 20.3046 6.51996 20.42 6.63086L33.89 20.1709C34.0975 20.3761 34.2619 20.6206 34.3735 20.8903C34.4851 21.1599 34.5418 21.4491 34.54 21.7409V32.6109Z" fill="#4D4D4F"/>
</svg>
