<svg width="40" height="40" viewBox="0 0 40 40" fill="none" xmlns="http://www.w3.org/2000/svg">
<path d="M19.73 22.9C21.5986 22.898 23.4247 22.3421 24.9774 21.3025C26.5301 20.2629 27.7398 18.7864 28.4536 17.0594C29.1673 15.3325 29.353 13.4327 28.9872 11.6003C28.6215 9.76781 27.7206 8.08492 26.3986 6.76431C25.0766 5.44371 23.3928 4.54467 21.5599 4.18085C19.7271 3.81703 17.8275 4.00476 16.1013 4.7203C14.3752 5.43584 12.8999 6.64707 11.8619 8.2009C10.824 9.75473 10.27 11.5814 10.27 13.45C10.2727 15.9572 11.2705 18.3608 13.0443 20.1328C14.8181 21.9047 17.2228 22.9 19.73 22.9ZM19.73 5.46C21.3123 5.46 22.859 5.92919 24.1746 6.80824C25.4902 7.68729 26.5155 8.93672 27.121 10.3985C27.7265 11.8603 27.885 13.4689 27.5763 15.0207C27.2676 16.5726 26.5057 17.998 25.3869 19.1169C24.2681 20.2357 22.8426 20.9976 21.2907 21.3063C19.7389 21.615 18.1304 21.4565 16.6685 20.851C15.2067 20.2455 13.9573 19.2202 13.0782 17.9046C12.1992 16.589 11.73 15.0422 11.73 13.46C11.73 11.3383 12.5729 9.30344 14.0732 7.80314C15.5734 6.30285 17.6083 5.46 19.73 5.46Z" fill="#4D4D4F"/>
<path d="M27.53 24.35H11.91C10.7399 24.35 9.58132 24.5805 8.50031 25.0282C7.41929 25.476 6.43705 26.1323 5.60968 26.9597C4.78231 27.787 4.12602 28.7693 3.67825 29.8503C3.23048 30.9313 3 32.0899 3 33.26V34.58C3 35.51 4.45001 35.45 4.45001 34.52V33.26C4.45001 31.2815 5.23596 29.384 6.63498 27.985C8.034 26.586 9.93149 25.8 11.91 25.8H27.53C28.5105 25.7987 29.4817 25.9907 30.3879 26.365C31.2942 26.7393 32.1177 27.2886 32.8115 27.9814C33.5053 28.6743 34.0557 29.4971 34.4312 30.4029C34.8067 31.3086 35 32.2795 35 33.26V34.52C35 35.45 36.44 35.52 36.45 34.58V33.26C36.45 32.0891 36.2192 30.9296 35.7708 29.848C35.3224 28.7663 34.6652 27.7836 33.8368 26.9561C33.0084 26.1286 32.0249 25.4725 30.9428 25.0254C29.8606 24.5782 28.7009 24.3487 27.53 24.35Z" fill="#4D4D4F"/>
</svg>
