<svg width="40" height="40" viewBox="0 0 40 40" fill="none" xmlns="http://www.w3.org/2000/svg">
<path d="M35.4164 16.8305C34.6827 13.7652 33.0273 10.9984 30.6732 8.90266C28.319 6.80691 25.3792 5.4829 22.2496 5.10893C19.12 4.73497 15.9509 5.32902 13.1693 6.81109C10.3876 8.29315 8.12689 10.592 6.69161 13.3981C5.25633 16.2042 4.7154 19.3828 5.14171 22.5057C5.56802 25.6286 6.94107 28.5458 9.07595 30.8646C11.2108 33.1833 14.005 34.7921 17.0821 35.4744C20.1592 36.1567 23.3716 35.8796 26.2864 34.6805C26.7094 34.497 27.1827 34.4652 27.6264 34.5905L31.9664 35.8305C32.1829 35.901 32.4088 35.9381 32.6364 35.9405C32.9718 35.9389 33.3027 35.8636 33.6058 35.72C33.9088 35.5764 34.1767 35.368 34.3904 35.1095C34.604 34.851 34.7583 34.5487 34.8423 34.224C34.9263 33.8994 34.9379 33.5602 34.8764 33.2305L33.9664 28.5805C33.9047 28.1521 33.9781 27.7152 34.1764 27.3305C35.8235 24.0888 36.2631 20.3667 35.4164 16.8305ZM32.5764 26.5705C32.1911 27.304 32.0609 28.1449 32.2064 28.9605L33.0864 33.6305C33.1003 33.7129 33.093 33.7976 33.065 33.8763C33.037 33.9551 32.9893 34.0254 32.9264 34.0805C32.8653 34.1396 32.7894 34.1811 32.7066 34.2005C32.6239 34.2198 32.5374 34.2164 32.4564 34.1905L28.1564 32.8305C27.833 32.7271 27.4959 32.6732 27.1564 32.6705C26.6347 32.6769 26.119 32.7821 25.6364 32.9805C22.6804 34.1872 19.3943 34.317 16.3523 33.3473C13.3103 32.3776 10.7056 30.3699 8.9933 27.6751C7.28098 24.9802 6.56984 21.7694 6.98409 18.6036C7.39834 15.4377 8.91164 12.518 11.2597 10.3544C13.6077 8.19087 16.6413 6.92099 19.8304 6.7666C23.0195 6.61222 26.1615 7.58314 28.7076 9.50978C31.2536 11.4364 33.0419 14.1963 33.76 17.3073C34.4781 20.4184 34.0804 23.6829 32.6364 26.5305L32.5764 26.5705Z" fill="#4D4D4F"/>
</svg>
